<svg width="19" height="19" viewBox="0 0 19 19" fill="none" xmlns="http://www.w3.org/2000/svg">
<path d="M11.1703 15.4217V11.4692H7.82077V15.4217H5.25659L8.36577 18.5328C8.99032 19.1557 10.0024 19.1557 10.627 18.5328L13.7379 15.4217H11.1703ZM3.5759 13.7459V5.25537L0.468409 8.36484C-0.156136 8.98944 -0.156136 10.0017 0.468409 10.6263L3.5759 13.7459ZM7.81739 3.57284V7.52358H11.1703V3.57284H13.7379L10.6236 0.468451C9.99907 -0.15615 8.98693 -0.15615 8.36238 0.468451L5.25659 3.57284H7.81739ZM18.521 8.35976L15.4135 5.25537V13.7374L18.5244 10.6263C19.1523 10.0084 19.1591 8.99791 18.5413 8.37161C18.5396 8.36992 18.5396 8.36992 18.5379 8.36823C18.5379 8.36823 18.5379 8.36823 18.5244 8.36823L18.521 8.35976Z" fill="#FFC700"/>
</svg>
