<svg width="17" height="17" viewBox="0 0 17 17" fill="none" xmlns="http://www.w3.org/2000/svg">
<path fill-rule="evenodd" clip-rule="evenodd" d="M13.4583 17H3.54167C1.58596 17 0 15.414 0 13.4583V3.54167C0 1.58596 1.58596 0 3.54167 0H13.4583C15.4148 0 17 1.58596 17 3.54167V13.4583C17 15.414 15.4148 17 13.4583 17ZM12.8874 4.39804C12.5906 4.12462 11.39 3.25338 8.71746 3.24133C8.71746 3.24133 5.56467 3.0515 4.02829 4.46108C3.17333 5.31675 2.87229 6.56767 2.84042 8.12033C2.80854 9.673 2.76746 12.5814 5.57104 13.3698L5.57387 13.3705L5.57246 14.574C5.57246 14.574 5.55475 15.0613 5.87492 15.1605C6.26308 15.2809 6.49117 14.9104 6.86163 14.5116C7.06492 14.2927 7.34542 13.9705 7.55721 13.7247C9.47467 13.8855 10.9494 13.5171 11.1173 13.4626C11.5047 13.3365 13.6949 13.056 14.0512 10.1483C14.4188 7.14921 13.8734 5.253 12.8874 4.39804ZM13.2118 9.93154C12.9108 12.3597 11.1343 12.5134 10.807 12.6182C10.6675 12.6629 9.37196 12.9852 7.7435 12.8789C7.7435 12.8789 6.52942 14.343 6.15046 14.7241C6.09167 14.7836 6.02225 14.8077 5.9755 14.7964C5.91033 14.7801 5.89192 14.7029 5.89333 14.5902L5.90325 12.5899C3.53175 11.9312 3.66987 9.45554 3.69679 8.15929C3.72371 6.86304 3.96738 5.80054 4.69058 5.08654C5.99038 3.90929 8.66788 4.08496 8.66788 4.08496C10.9289 4.09487 12.0126 4.77629 12.2641 5.00437C13.0978 5.71837 13.5228 7.42758 13.2118 9.93154ZM8.94412 10.0775C8.94412 10.0775 9.15662 10.0959 9.27067 9.95421L9.49379 9.67371C9.60146 9.53487 9.86142 9.44562 10.1157 9.58729C10.4522 9.77712 10.8878 10.076 11.186 10.3544C11.3503 10.4932 11.3886 10.6972 11.2767 10.9126L11.2752 10.9168C11.1605 11.1208 11.0061 11.3114 10.8113 11.4885L10.807 11.492C10.5882 11.6748 10.336 11.781 10.0661 11.6932L10.0612 11.6861C9.57738 11.5494 8.41642 10.9572 7.67621 10.3672C6.46567 9.41162 5.60575 7.83629 5.36704 6.99196L5.35996 6.987C5.27212 6.71642 5.37908 6.46425 5.56112 6.24608L5.56467 6.24183C5.74246 6.04704 5.933 5.89333 6.13629 5.77787L6.14054 5.77717C6.35587 5.66454 6.55987 5.70279 6.69871 5.86713C6.88146 6.05625 7.225 6.51029 7.46583 6.93742C7.6075 7.19171 7.51896 7.45167 7.37942 7.55933L7.09892 7.78246C6.95725 7.8965 6.97567 8.109 6.97567 8.109C6.97567 8.109 7.39075 9.68079 8.94412 10.0775ZM11.3886 8.77413C11.4722 8.77342 11.5395 8.70542 11.5388 8.62183C11.531 7.62733 11.2264 6.82904 10.6335 6.25033C10.042 5.67375 9.29687 5.37838 8.41925 5.372C8.33637 5.372 8.26767 5.43858 8.26696 5.52217C8.26696 5.60575 8.33354 5.67375 8.41712 5.67446C9.214 5.68012 9.88904 5.94646 10.4224 6.46708C10.9558 6.987 11.2292 7.71304 11.2363 8.62467C11.237 8.70754 11.3043 8.77413 11.3872 8.77413H11.3886ZM10.5931 8.46387H10.5896C10.506 8.46175 10.4401 8.39304 10.4422 8.30946C10.4536 7.79237 10.3062 7.37446 9.99104 7.03021C9.67725 6.68738 9.24658 6.49967 8.67354 6.45787C8.59067 6.4515 8.52763 6.37925 8.534 6.29637C8.54037 6.21279 8.61263 6.15046 8.6955 6.15612C9.34008 6.20358 9.85079 6.42883 10.2142 6.82621C10.579 7.22429 10.7575 7.72579 10.744 8.31583C10.7426 8.39871 10.6753 8.46387 10.5931 8.46387ZM9.8175 8.20392C9.73746 8.20392 9.67087 8.14087 9.66663 8.06012C9.64112 7.54729 9.39958 7.29583 8.90587 7.26962C8.823 7.26467 8.75854 7.19383 8.7635 7.11025C8.76775 7.02737 8.83858 6.96292 8.92217 6.96787C9.57312 7.00258 9.93508 7.37517 9.96837 8.04525C9.97262 8.12883 9.90887 8.19967 9.82529 8.20392H9.8175Z" fill="#F2F6FF"/>
</svg>
