<svg width="45" height="44" viewBox="0 0 45 44" fill="none" xmlns="http://www.w3.org/2000/svg">
<g filter="url(#filter0_b_82_182)">
<circle cx="23" cy="22" r="22" fill="#141414" fill-opacity="0.01"/>
<circle cx="23" cy="22" r="21.5" stroke="#F2F6FF"/>
</g>
<circle cx="23" cy="22" r="14" fill="#FFC700"/>
<path d="M32.7463 21.449L30.804 19.7108C28.8463 17.9615 26.2528 17 23.4965 17C20.7402 17 18.1467 17.9615 16.1929 19.7108L14.2507 21.449C13.7816 21.926 14.084 22.429 14.2507 22.551L16.1929 24.2892C18.1467 26.0385 20.7402 27 23.4965 27C26.2528 27 28.8463 26.0385 30.8002 24.2892L32.7424 22.551C32.9246 22.4068 33.2153 21.9001 32.7463 21.449ZM23.4965 24.2189C22.2133 24.2189 21.1705 23.2241 21.1705 22C21.1705 20.7759 22.2133 19.7811 23.4965 19.7811C24.7797 19.7811 25.8225 20.7759 25.8225 22C25.8225 23.2241 24.7797 24.2189 23.4965 24.2189ZM15.9486 22L17.2783 20.8129C18.5189 19.7034 20.0695 18.9675 21.7559 18.6642C20.4727 19.2781 19.5927 20.5429 19.5927 22C19.5927 23.4571 20.4766 24.7256 21.7559 25.3358C20.0695 25.0362 18.5189 24.2966 17.2783 23.1871L15.9486 22ZM29.7186 23.1871C28.478 24.2966 26.9274 25.0362 25.241 25.3358C26.5242 24.7219 27.4042 23.4571 27.4042 22C27.4042 20.5429 26.5203 19.2781 25.241 18.6642C26.9274 18.9638 28.478 19.7034 29.7186 20.8129L31.0483 22L29.7186 23.1871Z" fill="#141414"/>
<path d="M23.4965 21.2308C23.0585 21.2308 22.6902 21.5821 22.6902 22C22.6902 22.4179 23.0585 22.7692 23.4965 22.7692C23.9346 22.7692 24.3029 22.4179 24.3029 22C24.3029 21.5821 23.9346 21.2308 23.4965 21.2308Z" fill="#141414"/>
<defs>
<filter id="filter0_b_82_182" x="-19" y="-20" width="84" height="84" filterUnits="userSpaceOnUse" color-interpolation-filters="sRGB">
<feFlood flood-opacity="0" result="BackgroundImageFix"/>
<feGaussianBlur in="BackgroundImageFix" stdDeviation="10"/>
<feComposite in2="SourceAlpha" operator="in" result="effect1_backgroundBlur_82_182"/>
<feBlend mode="normal" in="SourceGraphic" in2="effect1_backgroundBlur_82_182" result="shape"/>
</filter>
</defs>
</svg>
