<svg width="44" height="44" viewBox="0 0 44 44" fill="none" xmlns="http://www.w3.org/2000/svg">
<g clip-path="url(#clip0_137_182)">
<g filter="url(#filter0_b_137_182)">
<circle cx="22" cy="22" r="22" fill="#141414" fill-opacity="0.01"/>
<circle cx="22" cy="22" r="21.5" stroke="#F2F6FF"/>
</g>
<circle cx="22" cy="22" r="14" fill="#FFC700"/>
<path d="M31.7463 21.449L29.804 19.7108C27.8463 17.9615 25.2528 17 22.4965 17C19.7402 17 17.1467 17.9615 15.1929 19.7108L13.2507 21.449C12.7816 21.926 13.084 22.429 13.2507 22.551L15.1929 24.2892C17.1467 26.0385 19.7402 27 22.4965 27C25.2528 27 27.8463 26.0385 29.8002 24.2892L31.7424 22.551C31.9246 22.4068 32.2153 21.9001 31.7463 21.449ZM22.4965 24.2189C21.2133 24.2189 20.1705 23.2241 20.1705 22C20.1705 20.7759 21.2133 19.7811 22.4965 19.7811C23.7797 19.7811 24.8225 20.7759 24.8225 22C24.8225 23.2241 23.7797 24.2189 22.4965 24.2189ZM14.9486 22L16.2783 20.8129C17.5189 19.7034 19.0695 18.9675 20.7559 18.6642C19.4727 19.2781 18.5927 20.5429 18.5927 22C18.5927 23.4571 19.4766 24.7256 20.7559 25.3358C19.0695 25.0362 17.5189 24.2966 16.2783 23.1871L14.9486 22ZM28.7186 23.1871C27.478 24.2966 25.9274 25.0362 24.241 25.3358C25.5242 24.7219 26.4042 23.4571 26.4042 22C26.4042 20.5429 25.5203 19.2781 24.241 18.6642C25.9274 18.9638 27.478 19.7034 28.7186 20.8129L30.0483 22L28.7186 23.1871Z" fill="#141414"/>
<path d="M22.4965 21.2308C22.0585 21.2308 21.6902 21.5821 21.6902 22C21.6902 22.4179 22.0585 22.7692 22.4965 22.7692C22.9346 22.7692 23.3029 22.4179 23.3029 22C23.3029 21.5821 22.9346 21.2308 22.4965 21.2308Z" fill="#141414"/>
</g>
<defs>
<filter id="filter0_b_137_182" x="-20" y="-20" width="84" height="84" filterUnits="userSpaceOnUse" color-interpolation-filters="sRGB">
<feFlood flood-opacity="0" result="BackgroundImageFix"/>
<feGaussianBlur in="BackgroundImageFix" stdDeviation="10"/>
<feComposite in2="SourceAlpha" operator="in" result="effect1_backgroundBlur_137_182"/>
<feBlend mode="normal" in="SourceGraphic" in2="effect1_backgroundBlur_137_182" result="shape"/>
</filter>
<clipPath id="clip0_137_182">
<rect width="44" height="44" fill="white"/>
</clipPath>
</defs>
</svg>
