<svg width="94" height="62" viewBox="0 0 94 62" fill="none" xmlns="http://www.w3.org/2000/svg">
<path d="M13.8247 16.267C13.8455 16.3538 12.8257 21.2846 10.6943 31.0553C10.2738 32.9648 10.0657 34.0973 10.149 34.4528C10.2988 34.7751 10.3779 34.9446 10.3904 34.9942C11.1272 35.8167 12.1763 36.3623 13.5458 36.6474L13.5999 36.635C13.8039 35.486 14.291 33.126 15.0986 29.555C15.3442 29.0673 17.1883 25.9137 20.6934 20.0943C21.1013 19.4123 21.4427 18.8502 21.7299 18.3749C19.8775 27.3645 18.9658 29.1872 20.0773 33.9651C20.9432 37.6766 21.8132 36.602 25.0394 37.3418C25.0311 37.3046 25.0435 37.2839 25.081 37.2757C23.7281 32.6838 23.4242 31.9605 24.3525 24.7771C24.773 21.5285 26.5338 16.2422 28.7693 11.2742C29.7059 9.80697 30.0972 8.7241 29.9349 8.03387L29.8766 7.78588C29.6559 6.84353 28.5986 6.09543 26.6795 5.54573L26.5921 5.56639C26.3923 5.76065 26.2882 5.88051 26.2924 5.89704C25.7262 6.26489 24.1444 8.53811 21.6883 12.787C18.3289 18.5899 16.7221 22.8056 16.7387 22.8759L16.6846 22.8883L16.6721 22.8346L18.1 16.9903C19.0366 13.1631 19.6735 11.204 19.6444 11.0056L19.6319 10.9518C19.5153 10.4559 18.0958 9.93923 15.3691 9.38953C15.2817 9.41019 14.8238 9.96403 14.1661 11.1048C12.2304 14.5229 10.1906 18.8626 7.87606 24.0538C8.37144 21.9005 8.28818 22.1195 8.97088 19.6231C9.62861 17.1887 9.74517 15.9075 9.74517 15.6636L9.63277 15.428C9.31223 15.0147 8.15081 14.4981 5.73221 13.9856L5.67809 13.998C4.62906 15.8868 3.77568 17.1474 3.14293 17.7591C1.81499 19.09 0.757634 19.9703 0 20.3506C0.595284 21.2061 1.38206 21.512 2.36448 21.2846L2.40195 21.2764C2.99307 21.14 3.58419 20.8548 4.17531 20.4002L4.28354 20.3754L1.59852 33.498C1.25301 35.0934 0.886681 34.5024 0.961612 34.8371L1.0074 35.0314C1.06985 35.3 1.20306 35.548 1.39455 35.8043C2.6309 36.6598 3.605 37.131 4.33766 37.1848L4.39178 37.1724L5.69058 33.1922C5.76135 32.8408 8.50048 27.2198 13.8247 16.267Z" fill="#FFCC00"/>
<path d="M27.0334 22.103C26.2258 25.4302 26.0551 27.9183 26.4339 29.5509L26.5047 29.8526C26.5505 30.0469 26.6254 30.2907 26.7961 30.609C27.0167 31.0636 27.5163 31.51 28.3072 31.8324C29.4353 32.3035 30.2887 32.4069 30.8049 32.287L30.859 32.2746C31.3044 32.1713 31.7124 31.8902 32.0329 31.4067C32.5033 30.6792 32.9696 29.9187 33.4691 29.1706C33.5607 29.3194 33.7563 29.5137 34.0436 29.7699C34.6388 30.1378 35.1467 30.3775 35.563 30.5428C36.7036 30.9933 37.4862 31.1876 37.9483 31.0801L38.1106 31.0429C38.3063 30.9975 38.5061 30.8776 38.7101 30.6999C38.835 30.671 39.168 30.2411 39.6301 29.3856C39.7883 29.1086 40.4876 27.9266 41.724 25.86C41.8905 26.17 42.107 26.4469 42.39 26.6742C42.569 26.8768 42.9853 27.2115 43.6347 27.6414C44.051 27.9018 44.4631 28.125 44.8336 28.2655C46.2157 28.7904 47.5394 28.8772 48.7716 28.5961L49.0048 28.5424C49.9539 28.3233 50.8863 27.8852 51.7689 27.2322C52.8096 26.451 53.4465 25.3682 53.6754 24.0084C53.742 23.562 53.7629 22.9214 53.742 22.103C53.7087 21.3053 53.4298 19.7058 52.9802 17.3003C52.7971 16.3497 52.718 15.6016 52.693 15.1015C52.6639 14.3245 52.6805 13.7582 52.7346 13.4276C53.23 12.324 53.4049 11.4602 53.2716 10.8733L53.2425 10.7493C53.205 10.5881 53.1592 10.4683 53.076 10.3567C52.8845 10.026 52.6722 9.83177 52.4016 9.72431C51.9687 9.56312 51.5108 9.38539 51.1028 9.33166C50.341 9.20767 49.7624 9.22834 49.3295 9.32753C49.0505 9.74498 48.8341 10.1128 48.7092 10.3856C48.5177 10.7865 48.397 11.1502 48.3054 11.4892C48.2138 11.8281 48.1639 12.2496 48.1264 12.7456C47.8808 13.0639 47.6935 13.3119 47.5269 13.4813C46.8692 14.2129 44.8253 15.4817 43.897 16.0314C43.6014 16.2133 43.4474 16.2836 43.4515 16.3042C43.9969 16.8705 44.6255 17.0647 45.3581 16.8953C45.8743 16.7754 47.6685 15.8827 48.2346 15.4693L48.2513 15.4652C48.2554 15.4817 48.2554 15.4817 48.2554 15.4817C48.2887 15.6223 48.3096 15.7132 48.3054 15.7711L49.0464 19.9207C49.2795 21.2516 49.3877 22.1071 49.4002 22.4956C49.4252 23.4049 49.2753 24.153 48.9881 24.7606C48.934 24.9425 48.7467 25.2648 48.4178 25.7153C47.9224 26.2609 47.4728 26.5874 47.0441 26.6866L46.9899 26.699C46.9733 26.7032 46.9733 26.7032 46.9566 26.7238C46.9358 26.7114 46.9358 26.7114 46.915 26.7156L46.8442 26.7321C46.6111 26.7858 46.3614 26.7693 46.0658 26.7073C45.5038 26.48 45.1666 26.1659 45.0626 25.7195L45.0334 25.5955C44.896 25.0086 45.1208 24.1902 45.6162 23.0867C45.7786 22.7312 46.07 22.1981 46.6153 21.4706C47.2189 20.6605 47.7143 20.21 48.0431 20.0778L48.039 20.0612C46.6694 18.6353 45.3331 18.0649 44.0676 18.3749C43.8345 18.4287 43.6763 18.4824 43.5931 18.5196C43.3017 18.6436 43.1477 18.7138 43.1518 18.7345C42.748 19.3503 42.4691 19.8463 42.3109 20.2183C41.7989 21.3756 41.4867 22.4089 41.3743 23.3181C40.8581 24.1158 40.4252 24.7234 40.1088 25.1574C39.1389 26.5006 38.4853 27.2529 38.1106 27.3355C37.9858 27.3645 37.7776 27.3562 37.5237 27.319C38.3146 24.0125 39.3137 19.9662 40.6458 15.2462C40.8415 14.5477 40.9663 14.1261 40.9289 13.9484C40.8498 13.6094 40.4127 13.2623 39.5926 13.0597L36.5787 12.3282L36.5621 12.3323C36.5288 12.4315 36.4372 12.8489 36.2998 13.5516L36.2832 13.5557C36.0126 13.4483 35.7878 13.3697 35.588 13.3243C35.1134 13.2292 34.5847 13.1424 34.0019 13.1465C32.7614 13.1672 31.9913 13.254 31.6874 13.3243C30.5718 14.1219 29.402 15.8124 28.2781 18.4287C27.7119 19.7554 27.304 20.9912 27.0334 22.103ZM31.8165 19.8257C32.1953 18.7841 32.699 17.6227 33.4108 16.391C33.952 15.4817 34.4474 14.8618 34.8137 14.4774L34.8553 14.4857C35.2716 14.7254 35.6046 15.0436 35.9043 15.4239L33.6231 25.9344C33.5773 26.0584 33.2443 26.4882 32.649 27.2446C31.8248 28.3151 31.2087 28.902 30.8132 28.9929C30.8049 28.9805 30.8049 28.9805 30.7841 28.9846L30.7466 28.9929C30.5843 29.0301 30.3761 29.0218 30.1597 28.9764C29.9723 26.4593 30.5177 23.3967 31.8165 19.8257Z" fill="#FFCC00"/>
<path d="M54.816 24.4175C54.8494 24.5581 55.1532 24.8102 55.7485 25.178C57.1847 25.8393 58.4627 26.1452 59.6033 26.108L60.0321 26.0088C60.6565 25.8641 61.3683 25.3475 62.1676 24.5085C62.5298 24.1241 63.15 23.3099 63.8327 21.9542C64.8152 20.0282 65.4812 18.1145 65.935 16.2712C66.6926 13.2168 66.9673 11.3941 66.8924 10.832L66.7883 10.3897C66.3721 8.59597 64.7361 7.4015 61.8679 6.82286C61.7097 6.87659 61.4974 7.09565 61.2268 7.47589C60.6773 7.13284 60.2319 6.91792 59.8739 6.85179C59.187 7.70321 58.3711 8.89769 57.4178 10.4641C54.5829 15.0436 53.6879 19.6066 54.7453 24.1365L54.816 24.4175ZM59.0954 17.3954C60.132 13.5102 61.6639 11.0262 63.5247 9.8855C63.6163 10.0343 63.6662 10.1707 63.6954 10.2947L63.7328 10.4559C64.0076 11.6297 63.7661 13.4235 62.9918 15.8455C62.5506 17.2755 61.8762 18.9081 60.8355 20.6605C60.1361 21.8674 59.5284 22.57 59.1204 22.8304L59.1038 22.8346C58.9164 22.7643 58.7832 22.5907 58.7125 22.289L58.6667 22.0947C58.4377 21.1193 58.521 19.5281 59.0954 17.3954Z" fill="#FFCC00"/>
<path d="M93.9924 12.8572C93.9591 12.0595 93.6802 10.46 93.2306 8.05453C93.0474 7.10391 92.9683 6.35582 92.9434 5.85571C92.9142 5.07868 92.9309 4.51245 92.985 4.1818C93.4804 3.07412 93.6552 2.21443 93.5178 1.62753L93.4887 1.50354C93.4512 1.34234 93.4054 1.22248 93.3222 1.11089C93.1307 0.780241 92.9184 0.585984 92.6478 0.478523C92.2149 0.317331 91.7611 0.139607 91.349 0.0858766C90.583 -0.038117 90.0044 -0.0174514 89.5756 0.0817435C89.2967 0.503322 89.0802 0.867036 88.9554 1.13982C88.7639 1.5366 88.6432 1.90445 88.5516 2.24336C88.46 2.58228 88.41 3.00386 88.3726 3.49983C88.127 3.81808 87.9396 4.06607 87.7731 4.23553C87.1154 4.96709 86.3245 5.61599 85.3961 6.16569C85.1006 6.34755 84.9466 6.41782 84.9507 6.43435C85.4961 7.00059 86.1246 7.19484 86.8573 7.02538C87.3777 6.90552 87.9147 6.63274 88.4808 6.22356L88.4975 6.21943C88.5016 6.23596 88.5016 6.23596 88.5016 6.23596C88.5349 6.37648 88.5557 6.46741 88.5474 6.52528L89.2884 10.6749C89.5215 12.0058 89.6256 12.8613 89.6422 13.2499C89.6672 14.1591 89.5173 14.9072 89.2259 15.5148C89.1718 15.6967 88.9845 16.0191 88.6556 16.4696C88.1603 17.0151 87.7107 17.3416 87.2819 17.4408L87.2278 17.4532C87.2111 17.4574 87.2111 17.4574 87.1945 17.478C87.1737 17.4656 87.1737 17.4656 87.1529 17.4698L87.0821 17.4863C86.849 17.54 86.5992 17.5235 86.3036 17.4615C85.7417 17.2342 85.4045 16.9201 85.3004 16.4737L85.2713 16.3497C85.1339 15.7628 85.3587 14.9444 85.8541 13.8409C86.0164 13.4854 86.3078 12.9523 86.8531 12.229C87.4567 11.4189 87.9521 10.9642 88.281 10.8361L88.2768 10.8196C86.9073 9.39366 85.571 8.82329 84.3055 9.13327C84.0724 9.187 83.9142 9.24074 83.8309 9.28207C83.5395 9.40606 83.3855 9.47632 83.3897 9.49699C82.9859 10.1128 82.707 10.6088 82.5488 10.9808C81.8078 12.6547 81.4831 14.0724 81.5747 15.2214C81.4082 15.4611 81.2375 15.7049 81.0543 15.9653C80.2176 17.1474 79.6098 17.7756 79.2352 17.8624C79.1103 17.8914 78.9396 17.8914 78.7481 17.879L78.744 17.8624C79.3725 15.2296 80.3591 11.299 81.7745 6.1285C82.0326 5.20681 82.1741 4.69017 82.1367 4.52898C82.0118 3.99581 81.0294 3.56596 79.1811 3.24358C78.1903 2.94599 77.5409 2.8344 77.2745 2.8964L77.0414 2.95013C76.6126 3.04932 76.1713 3.50397 75.7176 4.30166C75.5303 4.7191 74.8517 5.84744 73.682 7.68668L73.6778 7.67015C73.7944 7.28577 73.8485 7.03365 73.811 6.87246C73.7153 6.46328 73.1991 6.09543 72.2208 5.87224C70.6806 5.49613 69.7564 5.31841 69.4484 5.21921C69.3776 5.4052 68.366 10.274 66.3096 19.8009C66.1431 20.5489 66.0474 21.0945 66.1389 21.4872L66.1556 21.5574C66.268 22.0369 66.6135 22.4626 67.1713 22.8387C67.904 23.2313 68.6949 23.5537 69.5316 23.8306L69.5816 23.8017C70.3351 20.4126 71.1135 17.0317 72.0501 13.6962C72.2208 13.0597 72.6995 12.1091 73.4988 10.9312C75.2847 8.25705 76.4461 6.84766 76.8957 6.74846L76.9331 6.7402L74.6269 17.54C74.4604 18.2881 74.3772 18.813 74.4521 19.1313C74.6061 19.7885 75.0765 20.3547 75.9008 20.7432C77.5076 21.4954 78.5691 21.7558 79.0312 21.6525L79.2643 21.5988C79.7805 21.4789 80.355 20.7845 80.9711 19.5405C81.5081 18.6684 81.9785 17.8955 82.3906 17.2094C82.4655 17.2879 82.5405 17.3664 82.6279 17.4367C82.8069 17.6392 83.2232 17.974 83.8726 18.4039C84.293 18.6642 84.701 18.8874 85.0715 19.028C86.4577 19.5529 87.7773 19.6397 89.0095 19.3586L89.2426 19.3049C90.1917 19.0858 91.1242 18.6477 92.0109 17.9947C93.0516 17.2135 93.6885 16.1306 93.9174 14.7708C93.9924 14.3162 94.0132 13.6756 93.9924 12.8572Z" fill="#FFCC00"/>
<path d="M19.5819 56.8295L19.7401 56.7964C19.9274 56.7551 20.0981 56.6435 20.2563 56.474C20.3687 56.4492 20.76 55.7673 21.5343 54.4943C21.8298 54.0107 22.1004 53.5726 22.3502 53.1593C22.3835 53.3535 22.421 53.5436 22.4626 53.7379L22.5125 53.9652C22.5375 54.0809 22.779 54.2793 23.2494 54.5811C24.39 55.1225 25.4099 55.3787 26.3215 55.3581L26.667 55.2837C27.1707 55.1762 27.7411 54.767 28.3905 54.1016C28.686 53.7999 29.1897 53.151 29.7475 52.0764C30.551 50.543 31.1004 49.0179 31.4834 47.5506C31.8622 46.0875 32.0995 44.9839 32.2161 44.2359C32.4076 44.1863 32.6199 44.0995 32.8447 43.9259C33.4733 43.4299 33.8937 42.4875 34.1018 41.1732C34.3641 40.9211 34.6722 40.764 35.0052 40.6938L35.0218 40.6896C35.18 40.6566 35.3007 40.6607 35.409 40.6814L33.39 49.7205C33.2193 50.2495 33.1735 50.6463 33.236 50.9315L33.261 51.0472C33.4108 51.7168 34.1726 52.25 35.5463 52.7583C36.1999 52.9898 36.6745 53.1097 37.0075 53.0394L37.0949 53.0187C37.4238 52.9485 37.761 52.6963 38.044 52.2128C38.4853 51.4936 38.989 50.6546 39.5593 49.7288C39.5551 49.8156 39.5551 49.8941 39.5718 49.9561L39.6134 50.1421C39.7633 50.8116 40.6416 51.3944 42.2568 51.8945C42.9437 48.8773 43.464 46.6744 43.8137 45.2691C43.8179 44.6698 44.3715 43.1778 45.7744 40.9335C46.8817 39.1397 48.039 37.7841 48.9798 36.726C49.1005 37.2798 48.6343 38.5611 47.5311 40.5202C46.5903 42.1858 45.8244 43.3555 45.2915 44.0664L46.3239 48.7368C46.3447 48.836 46.4196 48.9683 46.5528 49.1501C47.5103 50.1503 48.3096 50.5719 48.9548 50.4314L49.1713 50.3859C49.5293 50.3074 49.8748 49.828 50.3785 48.9889C50.8947 48.1292 51.3484 47.4018 51.7314 46.7819C51.8147 46.881 51.9062 46.9802 52.0103 47.0629C52.1518 47.2282 52.4807 47.4969 52.9969 47.8482C53.3299 48.059 53.6546 48.2408 53.9502 48.3566C55.0533 48.7864 56.1107 48.8732 57.0973 48.6542L57.2846 48.6128C58.0464 48.4475 58.7957 48.1045 59.5076 47.5919C60.3484 46.9761 60.8646 46.1164 61.0603 45.0294C61.1186 44.674 61.1394 44.1615 61.1311 43.5084C61.1102 42.8719 60.9021 41.5865 60.5649 39.6605C60.4275 38.9 60.3693 38.3007 60.3568 37.8998C60.3401 37.2757 60.3609 36.8252 60.4067 36.5606C60.8147 35.6803 60.9604 34.9901 60.8563 34.523L60.8355 34.4238C60.8064 34.2957 60.7689 34.2006 60.7064 34.1097C60.5566 33.8452 60.3859 33.6881 60.1736 33.5972C59.8281 33.4649 59.4659 33.3203 59.1412 33.2707C58.5293 33.1632 58.0672 33.1756 57.7217 33.25C57.4927 33.5848 57.3179 33.8741 57.218 34.0932C57.064 34.4114 56.9599 34.7007 56.885 34.9735C56.81 35.2422 56.7643 35.5811 56.731 35.9779C56.5311 36.23 56.3771 36.4284 56.2439 36.5606C55.7111 37.1393 55.0741 37.6518 54.3248 38.0816C54.0876 38.2222 53.9627 38.28 53.9668 38.2924C54.3998 38.7512 54.8993 38.9083 55.4904 38.7843C55.9067 38.6933 56.3396 38.4784 56.7934 38.156L56.8059 38.1519C56.81 38.1643 56.81 38.1643 56.81 38.1643C56.835 38.28 56.8517 38.3503 56.8475 38.3958L57.4012 41.7229C57.576 42.7893 57.6509 43.4754 57.6593 43.7853C57.6717 44.5128 57.5469 45.1079 57.3054 45.5915C57.2638 45.7362 57.1098 45.9924 56.8433 46.3479C56.4437 46.7777 56.0774 47.0381 55.736 47.1125L55.6944 47.1208C55.6819 47.1249 55.6819 47.1249 55.6694 47.1414C55.6528 47.129 55.6528 47.129 55.6361 47.1332L55.5778 47.1456C55.3905 47.1869 55.1907 47.1704 54.9576 47.1166C54.5122 46.9306 54.2416 46.6744 54.1667 46.3189L54.1458 46.2197C54.0418 45.7486 54.2291 45.0955 54.6371 44.2193C54.7703 43.9383 55.0075 43.5126 55.453 42.9381C55.94 42.2933 56.3438 41.9378 56.6061 41.8345L56.6019 41.8221C55.5196 40.669 54.4539 40.2019 53.4382 40.4375C53.2508 40.4788 53.1259 40.5202 53.0552 40.5491C52.8221 40.6442 52.6972 40.702 52.7013 40.7144C52.3725 41.2021 52.1435 41.5948 52.0145 41.8924C51.4234 43.186 51.1528 44.2854 51.1944 45.1947C50.2036 46.6248 49.5126 47.3646 49.1838 47.4349L49.1546 47.4432C48.9839 47.4804 48.8133 47.4721 48.6343 47.406L48.576 47.0753L48.1347 45.0831C48.1056 44.9426 48.0764 44.7525 48.039 44.5086C48.5468 43.8763 49.0214 43.31 49.3669 42.7727C51.2735 39.8961 52.0311 37.7427 51.7356 36.4201L51.7189 36.3499C51.3776 35.8291 50.6283 35.362 49.4418 34.9487C48.6634 35.3124 47.2356 36.9368 45.1541 39.8382C45.5704 38.1808 45.9867 36.5978 46.4113 35.0562C47.094 32.6383 47.4229 31.4025 47.4062 31.3323C47.3604 31.1173 47.2147 30.9396 46.9775 30.828C46.7485 30.671 45.7494 30.3775 43.9885 29.9559L43.9594 29.9642C43.9178 30.0841 42.7522 35.4199 40.3586 45.9552C39.3012 47.5547 38.5644 48.5632 38.2064 49.0096C37.7568 49.5717 37.4113 49.8982 37.1365 49.9602C37.0075 49.9892 36.8743 49.9892 36.7327 49.9602C37.5695 46.7323 38.4853 43.339 39.5052 39.7886C39.6134 39.4497 39.6551 39.2348 39.6301 39.1191L39.6176 39.0612C39.5635 38.8173 39.3054 38.5941 38.7975 38.4206C38.3896 38.2718 37.5695 37.97 36.3248 37.7799C35.8128 37.6394 35.4423 37.5402 35.1717 37.5981L35.0593 37.6229C34.7845 37.6807 34.5389 37.8543 34.285 38.1354L34.2684 38.1395L34.2517 37.2467C33.4108 36.6392 32.5824 36.4325 31.7374 36.6144L31.5375 36.6598C31.4085 36.6888 31.3252 36.7218 31.2836 36.7466C31.3627 37.0277 31.4043 37.2261 31.4251 37.3294C31.754 38.8132 31.8331 40.2722 31.6666 41.7146C31.0338 40.8963 29.9265 40.3053 28.3114 39.9622C28.1865 40.0035 28.0116 40.1771 27.7952 40.4788C27.3581 40.2019 27.0042 40.0242 26.7212 39.9663C26.1633 40.64 25.5015 41.5907 24.723 42.8347C22.9954 45.5584 22.1337 48.2863 22.1504 51.01C21.988 51.2498 21.8174 51.4977 21.6342 51.7623C20.7267 53.0353 20.1148 53.7338 19.7443 53.8164C19.6111 53.8288 19.4779 53.8288 19.3655 53.8082C20.1106 50.915 20.9057 47.9185 21.7924 44.8476C22.0838 43.8432 22.242 43.2852 22.2212 43.186L22.1962 43.0703C22.1421 42.8265 21.809 42.6033 21.1846 42.3801C19.8317 42.0494 19.0199 41.8386 18.7494 41.7601L18.7202 41.7684C18.6952 41.8634 17.8918 45.3683 16.3391 52.2872C16.3599 52.374 16.0935 52.7418 15.5898 53.4486C14.8613 54.4447 14.3493 54.9861 14.0204 55.0605C13.8872 55.0729 13.754 55.0729 13.6416 55.0522C14.2826 52.5104 15.0528 49.5345 16.0435 46.1247C16.3516 45.0707 16.5181 44.5293 16.4931 44.4301L16.4681 44.3144C16.414 44.0705 16.081 43.8473 15.4566 43.6242C14.1036 43.2935 13.2919 43.0827 13.0213 43.0042L12.9922 43.0124L10.6235 53.5271C10.6443 53.6263 10.3821 53.9983 9.88254 54.672C9.14156 55.6681 8.61704 56.2302 8.28818 56.3046C8.15497 56.317 8.03425 56.317 7.90936 56.2963C8.46302 54.114 9.21233 51.2374 10.2197 47.7035C10.5736 46.4471 10.7859 45.7734 10.7651 45.6742L10.7401 45.5585C10.6943 45.3435 10.4195 45.1203 9.91168 44.9467C9.45793 44.7938 8.58374 44.5789 7.29327 44.2483L7.26413 44.2524C7.22666 44.364 6.38161 48.2822 4.62073 55.9656C4.49169 56.5443 4.40427 56.9659 4.46671 57.2386L4.48752 57.3378C4.58327 57.7801 4.92046 58.2141 5.54488 58.524C6.84784 59.1812 7.7262 59.4085 8.12583 59.3217L8.28402 59.2887C8.54211 59.2308 8.82102 59.0076 9.1374 58.5943C9.61612 57.7594 10.0282 57.0568 10.3904 56.5154C10.4237 56.6724 10.7234 56.9369 11.2646 57.28C12.5759 57.9041 13.4293 58.1686 13.8455 58.0777L14.0037 58.0446C14.2618 57.9867 14.5407 57.7636 14.8571 57.3502C15.3358 56.5154 15.748 55.8127 16.1101 55.2713C16.2017 55.4738 16.4806 55.7259 16.9843 56.0359C18.3123 56.66 19.1656 56.9204 19.5819 56.8295ZM25.9968 48.3855C26.8585 45.2857 28.1074 43.3142 29.6102 42.4173C29.6809 42.5371 29.7226 42.6487 29.7434 42.7479L29.7725 42.8761C29.9806 43.8143 29.7725 45.2485 29.1314 47.1786C28.7651 48.3194 28.2115 49.6172 27.3622 51.01C26.7919 51.9689 26.3007 52.5269 25.9677 52.7335L25.9552 52.7377C25.8053 52.6798 25.7013 52.5393 25.6472 52.2954L25.6138 52.1384C25.4348 51.3613 25.5139 50.0883 25.9968 48.3855Z" fill="#FFCC00"/>
<path d="M83.2023 32.1217L83.1232 31.7662C82.8069 30.3279 81.5081 29.3566 79.2227 28.8689C79.0978 28.9102 78.923 29.0838 78.7065 29.3856C78.2694 29.1086 77.9156 28.9309 77.6325 28.8731C77.0747 29.5468 76.4128 30.4974 75.6343 31.7414C73.8069 34.6222 72.9535 37.5113 73.0742 40.3921C72.8411 40.7227 72.5871 41.0699 72.3207 41.4336C71.7213 42.252 71.2759 42.6901 70.9886 42.7521C70.8596 42.781 70.7388 42.7769 70.5973 42.7479C71.3716 39.7886 72.1709 36.7466 73.0617 33.6881C73.2657 32.9855 73.3781 32.6053 73.3531 32.4895C73.3073 32.2911 73.1366 32.1176 72.8286 31.9605C72.4914 31.7952 71.8004 31.5265 70.6972 31.3653C70.1685 31.2124 69.7731 31.1339 69.5025 31.1917C69.157 31.2661 68.8073 31.5802 68.4618 32.1341C68.366 32.3779 67.7333 33.3988 66.5594 35.2215C67.1297 32.9648 67.7832 30.3568 68.6449 27.4389C68.7449 27.0751 68.8281 26.8313 68.7948 26.6908L68.7906 26.6784C68.724 26.3808 68.3202 26.108 67.5543 25.9179C66.5053 25.6534 65.7934 25.4963 65.4521 25.3888L65.4354 25.393C65.3938 25.5376 65.0441 27.0297 64.403 29.9022C62.3133 39.148 61.2684 43.8101 61.2518 43.8887C61.0978 44.3557 61.0645 44.7484 61.1352 45.0625L61.1435 45.1038C61.231 45.5006 61.5182 45.8436 61.9886 46.1288C62.4548 46.4016 63.0543 46.6579 63.7495 46.8811L63.762 46.8769C64.2324 44.7277 64.7319 42.6198 65.2231 40.5574C65.4104 39.7721 65.5145 39.3009 65.6019 39.148C65.6935 38.8132 66.0598 38.1519 66.6968 37.222C67.9831 35.3455 68.8573 34.3494 69.2819 34.151L69.2985 34.1469L67.3919 42.6694C67.2546 43.0703 67.2254 43.4092 67.292 43.7068L67.3045 43.7647C67.4003 44.1904 67.7125 44.5872 68.2869 44.8806C69.5691 45.513 70.4225 45.761 70.8096 45.6742L70.922 45.6494C71.0927 45.6122 71.255 45.5337 71.4091 45.3931C71.6255 45.2113 71.8878 44.7649 72.2833 44.1119C72.6746 43.4588 73.0242 42.8967 73.3281 42.4214C73.3448 42.4958 73.3573 42.5743 73.3739 42.6487L73.4239 42.8761C73.4489 42.9918 73.6903 43.1902 74.1607 43.4919C75.3013 44.0333 76.3212 44.2896 77.2329 44.2689L77.5784 44.1945C78.0821 44.0871 78.6524 43.6779 79.3018 43.0125C79.5973 42.7107 80.101 42.0618 80.6589 40.9872C81.4623 39.4538 82.0118 37.9328 82.3948 36.4615C83.0192 34.0271 83.2565 32.5722 83.2023 32.1217ZM80.0344 36.0936C79.6723 37.2344 79.1144 38.5322 78.2652 39.925C77.6949 40.8839 77.2037 41.4419 76.8707 41.6485L76.854 41.6527C76.7083 41.5948 76.6001 41.4543 76.546 41.2104L76.5127 41.0534C76.3378 40.2722 76.4211 38.9992 76.8998 37.2964C77.7657 34.1965 79.0104 32.225 80.5132 31.3281C80.5839 31.448 80.6256 31.5596 80.6464 31.6588L80.6755 31.7869C80.8878 32.7293 80.6755 34.1634 80.0344 36.0936Z" fill="#FFCC00"/>
<path d="M92.8393 27.3645C92.6436 26.885 92.2815 26.4717 91.6612 26.1865C90.6288 25.7236 89.8462 25.5955 89.3467 25.7195C89.0178 25.8063 88.6931 26.0253 88.4517 26.4345C87.9854 27.1909 87.744 27.662 87.6399 27.8067C86.8531 27.1702 86.0456 26.7197 85.188 26.4428L85.163 26.4552C84.7468 27.1578 84.4887 27.8274 84.3263 28.4432C83.8351 30.299 83.3938 32.5267 83.0442 35.0975C82.6445 38.0527 82.324 41.1526 82.2241 44.3805C82.0784 48.7575 82.1408 51.1464 82.3032 51.5432L82.4031 51.7912C82.6778 52.4938 83.4438 52.8203 84.7468 52.7418L84.7842 52.7046C84.676 52.4153 84.5178 51.6424 84.4845 50.3983C84.3804 47.5548 84.805 44.2235 85.5585 40.4169C86.2329 40.8219 86.7824 41.0616 87.1778 41.1401C88.1936 41.322 88.9554 41.3509 89.4674 41.2228C90.0627 40.9294 90.8495 39.8465 91.682 37.9039C92.3189 36.4367 92.6478 35.2009 92.831 34.2502C93.3971 31.1587 93.4762 28.9433 92.9434 27.6124L92.8393 27.3645ZM90.8828 30.6255C90.7745 31.5596 90.5705 32.6921 90.1626 34.0353C89.3925 36.4739 88.4225 38.2676 87.3693 39.4208C87.0072 39.2141 86.6866 38.9124 86.4244 38.5363C86.9406 36.3168 87.6982 33.4815 88.7264 30.0469C89.4674 28.9764 90.0169 28.406 90.3541 28.3027L90.5081 28.2531C90.5789 28.2365 90.6996 28.2407 90.9036 28.2696C90.966 29.2368 90.9618 30.0262 90.8828 30.6255Z" fill="#FFCC00"/>
<path d="M78.0571 49.3816C77.9863 49.1791 77.8448 48.9683 77.6283 48.7699C71.1759 49.7866 66.5136 50.605 63.6412 51.2332L62.8253 51.4109C61.1435 51.7788 37.8567 56.1186 35.9501 56.6765C33.4441 57.3916 30.9797 58.1975 28.5195 59.0242C28.3572 59.0614 28.1199 59.2101 27.791 59.4995C27.1791 60.045 26.9127 60.5162 27.0459 60.9998L27.0833 61.0659C27.1499 61.3676 27.3914 61.6776 27.8035 62C32.1203 60.8427 35.384 60.0078 37.6278 59.5201L38.0024 59.4375L38.0898 59.3961C38.119 59.4127 38.1398 59.4085 38.1897 59.4003L38.5644 59.3176C40.5958 58.8754 64.2573 54.5769 66.6343 54.2545C69.7648 53.8123 73.2282 53.4238 77.0081 53.0394C77.9239 51.4316 78.2527 50.2661 78.0946 49.5469L78.0571 49.3816Z" fill="#FFCC00"/>
</svg>
